<?xml version="1.0" encoding="UTF-8"?>
<svg id="Laag_2" data-name="Laag 2" xmlns="http://www.w3.org/2000/svg" viewBox="0 0 2283.26 660.03">
  <defs>
    <style>
      .cls-1 {
        fill: #f7003b;
      }

      .cls-1, .cls-2 {
        stroke-width: 0px;
      }

      .cls-2 {
        fill: #fff;
      }
    </style>
  </defs>
  <g id="Layer_1" data-name="Layer 1">
    <g>
      <path class="cls-2" d="M1424.65,510.29v-136.73c0-21.16,4.88-37.03,15.06-48.02,10.17-10.99,23.2-16.28,39.07-16.28,14.65,0,26.04,4.48,33.78,13.83,8.14,9.36,12.21,22.38,12.21,39.07v148.12h52.49v-136.73c0-21.57,4.88-37.44,14.65-48.42,9.36-10.58,22.38-15.87,38.66-15.87,14.65,0,26.04,4.48,34.59,13.83,8.54,9.36,12.61,22.38,12.61,39.07v148.12h52.9v-151.38c0-30.11-8.55-54.12-25.23-72.43-17.09-17.5-39.47-26.45-67.14-26.45-33.37,0-58.19,12.61-74.47,38.25-15.06-25.64-38.25-38.25-69.58-38.25s-54.12,11.8-69.59,35.4v-29.3h-52.9v244.16h52.9Z"/>
      <path class="cls-2" d="M2027.3,385.36c0-35.81-11.8-65.92-34.59-91.15-22.79-25.23-52.49-37.44-88.3-37.44s-68.37,12.21-92.78,36.62c-24.01,24.82-35.81,55.34-35.81,91.56s12.21,67.96,36.62,91.97c24.41,24.41,56.16,36.62,96.03,36.62,47.2,0,83.01-17.9,107.02-53.31l-43.54-25.23c-13.84,19.94-35,30.11-63.07,30.11-19.94,0-37.03-4.89-51.27-15.06-13.84-9.77-22.79-24.01-26.86-42.73h194.51c1.22-8.95,2.03-16.28,2.03-21.97ZM1830.35,364.61c3.66-18.72,11.8-33.37,24.82-43.95,13.02-10.99,29.3-16.28,48.83-16.28,17.5,0,32.55,5.29,45.17,15.06,13.02,10.17,21.16,25.23,24.82,45.17h-143.64Z"/>
      <path class="cls-2" d="M124.11,168.47L0,510.29h61.04l24.01-68.77h145.27l24.01,68.77h60.63l-123.3-341.82h-67.55ZM103.77,388.62l54.12-154.23,54.12,154.23h-108.24Z"/>
      <path class="cls-2" d="M537.96,300.72c-19.53-27.26-48.02-40.69-85.46-40.69-33.37,0-61.85,12.21-85.86,37.03-23.6,24.41-35.4,54.93-35.4,91.15s11.8,66.33,35.4,91.15c24.01,24.82,52.49,37.44,85.86,37.44,37.44,0,65.92-13.83,85.46-41.5v35h52.9V168.47h-52.9v132.25ZM515.98,443.96c-14.65,15.06-32.96,22.38-54.93,22.38s-40.69-7.32-55.34-22.38c-14.65-14.65-21.98-33.37-21.98-55.75s7.33-41.1,21.98-55.75c14.65-15.06,32.96-22.38,55.34-22.38s40.29,7.32,54.93,22.38c14.65,14.65,21.98,33.37,21.98,55.75s-7.32,41.1-21.98,55.75Z"/>
      <polygon class="cls-2" points="658 510.29 714.16 510.29 714.16 371.52 853.32 371.52 853.32 317.81 714.16 317.81 714.16 222.18 858.21 222.18 858.21 168.47 658 168.47 658 510.29"/>
      <path class="cls-2" d="M952.21,307.23v-41.1h-52.9v244.16h52.9v-122.89c0-25.23,7.32-43.13,22.38-54.12,15.06-10.99,32.55-15.46,52.9-14.24v-57.38c-37.03,0-61.85,15.46-75.28,45.58Z"/>
      <path class="cls-2" d="M1256.99,300.72c-19.94-27.26-48.42-40.69-85.45-40.69-33.78,0-62.26,12.21-86.27,37.03-23.6,24.41-35.4,54.93-35.4,91.15s11.8,66.33,35.4,91.15c24.01,24.82,52.49,37.44,86.27,37.44,37.03,0,65.51-13.83,85.45-41.5v35h52.49v-244.16h-52.49v34.59ZM1235.02,443.96c-14.65,15.06-33.37,22.38-55.34,22.38s-40.69-7.32-55.34-22.38c-14.65-14.65-21.97-33.37-21.97-55.75s7.32-41.1,21.97-55.75c14.65-15.06,33.37-22.38,55.34-22.38s40.69,7.32,55.34,22.38c14.65,14.65,21.97,33.37,21.97,55.75s-7.32,41.1-21.97,55.75Z"/>
      <path class="cls-1" d="M1478.36,0v110.28h-106.61v109.46h52.49v-56.97h699.51v444.77h-699.51v-50.87h-52.49v103.36h804.49v-110.28h107.02V0h-804.9ZM2230.36,497.26h-54.12V110.28h-644.98v-57.78h699.1v444.77Z"/>
    </g>
  </g>
</svg>